<mxfile host="app.diagrams.net" agent="Mozilla/5.0 (Windows NT 10.0; Win64; x64) AppleWebKit/537.36 (KHTML, like Gecko) Chrome/141.0.0.0 Safari/537.36" version="28.2.3">
  <diagram id="diagram-id-1" name="Page-1">
    <mxGraphModel dx="1042" dy="562" grid="0" gridSize="10" guides="1" tooltips="1" connect="1" arrows="1" fold="1" page="1" pageScale="1" pageWidth="1100" pageHeight="850" math="0" shadow="0">
      <root>
        <mxCell id="0" />
        <mxCell id="1" parent="0" />
        <mxCell id="2" value="Admin" style="shape=rectangle;whiteSpace=wrap;html=1;" parent="1" vertex="1">
          <mxGeometry x="60" y="80" width="120" height="40" as="geometry" />
        </mxCell>
        <mxCell id="3" value="Login&lt;br&gt;to&lt;br&gt;System" style="ellipse;whiteSpace=wrap;html=1;fillColor=#E6E6E6;" parent="1" vertex="1">
          <mxGeometry x="260" y="60" width="100" height="80" as="geometry" />
        </mxCell>
        <mxCell id="4" value="Forgot&lt;br&gt;Password" style="ellipse;whiteSpace=wrap;html=1;fillColor=#E6E6E6;" parent="1" vertex="1">
          <mxGeometry x="60" y="200" width="120" height="80" as="geometry" />
        </mxCell>
        <mxCell id="5" value="Check&lt;br&gt;Credentials" style="ellipse;whiteSpace=wrap;html=1;fillColor=#E6E6E6;" parent="1" vertex="1">
          <mxGeometry x="250" y="280" width="120" height="80" as="geometry" />
        </mxCell>
        <mxCell id="6" value="Send&lt;br&gt;Email&lt;br&gt;to&lt;br&gt;User" style="ellipse;whiteSpace=wrap;html=1;fillColor=#E6E6E6;" parent="1" vertex="1">
          <mxGeometry x="60" y="360" width="120" height="80" as="geometry" />
        </mxCell>
        <mxCell id="7" value="Check&lt;br&gt;Roles&lt;br&gt;of&lt;br&gt;Access" style="ellipse;whiteSpace=wrap;html=1;fillColor=#E6E6E6;" parent="1" vertex="1">
          <mxGeometry x="400" y="80" width="120" height="80" as="geometry" />
        </mxCell>
        <mxCell id="8" value="Manage&lt;br&gt;Modules" style="ellipse;whiteSpace=wrap;html=1;fillColor=#E6E6E6;" parent="1" vertex="1">
          <mxGeometry x="400" y="280" width="120" height="80" as="geometry" />
        </mxCell>
        <mxCell id="9" value="Manage Product Details" style="shape=rectangle;whiteSpace=wrap;html=1;" parent="1" vertex="1">
          <mxGeometry x="600" y="120" width="220" height="40" as="geometry" />
        </mxCell>
        <mxCell id="10" value="Manage Shopping Cart Details" style="shape=rectangle;whiteSpace=wrap;html=1;" parent="1" vertex="1">
          <mxGeometry x="600" y="180" width="220" height="40" as="geometry" />
        </mxCell>
        <mxCell id="11" value="Manage Customer Details" style="shape=rectangle;whiteSpace=wrap;html=1;" parent="1" vertex="1">
          <mxGeometry x="600" y="240" width="220" height="40" as="geometry" />
        </mxCell>
        <mxCell id="12" value="Manage Shipment Details" style="shape=rectangle;whiteSpace=wrap;html=1;" parent="1" vertex="1">
          <mxGeometry x="600" y="300" width="220" height="40" as="geometry" />
        </mxCell>
        <mxCell id="13" value="Manage Payment Details" style="shape=rectangle;whiteSpace=wrap;html=1;" parent="1" vertex="1">
          <mxGeometry x="600" y="360" width="220" height="40" as="geometry" />
        </mxCell>
        <mxCell id="14" value="Manage Order Details" style="shape=rectangle;whiteSpace=wrap;html=1;" parent="1" vertex="1">
          <mxGeometry x="600" y="420" width="220" height="40" as="geometry" />
        </mxCell>
        <mxCell id="15" value="Manage Report" style="shape=rectangle;whiteSpace=wrap;html=1;" parent="1" vertex="1">
          <mxGeometry x="600" y="480" width="220" height="40" as="geometry" />
        </mxCell>
        <mxCell id="16" value="Manage User Permission" style="shape=rectangle;whiteSpace=wrap;html=1;" parent="1" vertex="1">
          <mxGeometry x="460" y="560" width="200" height="40" as="geometry" />
        </mxCell>
        <mxCell id="17" value="Manage Roles of User" style="shape=rectangle;whiteSpace=wrap;html=1;" parent="1" vertex="1">
          <mxGeometry x="240" y="560" width="200" height="40" as="geometry" />
        </mxCell>
        <mxCell id="18" value="Manage System Admins" style="shape=rectangle;whiteSpace=wrap;html=1;" parent="1" vertex="1">
          <mxGeometry x="20" y="560" width="200" height="40" as="geometry" />
        </mxCell>
        <mxCell id="19" value="Second Level DFD -&amp;nbsp; E commerce" style="shape=rectangle;whiteSpace=wrap;html=1;" parent="1" vertex="1">
          <mxGeometry x="220" y="660" width="460" height="40" as="geometry" />
        </mxCell>
        <mxCell id="20" value="" style="endArrow=classic;html=1;rounded=0;" parent="1" source="2" target="3" edge="1">
          <mxGeometry width="50" height="50" relative="1" as="geometry">
            <mxPoint x="190" y="100" as="sourcePoint" />
            <mxPoint x="250" y="100" as="targetPoint" />
          </mxGeometry>
        </mxCell>
        <mxCell id="21" value="" style="endArrow=classic;html=1;rounded=0;" parent="1" source="2" target="4" edge="1">
          <mxGeometry width="50" height="50" relative="1" as="geometry">
            <mxPoint x="120" y="130" as="sourcePoint" />
            <mxPoint x="120" y="190" as="targetPoint" />
          </mxGeometry>
        </mxCell>
        <mxCell id="22" value="" style="endArrow=classic;html=1;rounded=0;" parent="1" source="3" target="5" edge="1">
          <mxGeometry width="50" height="50" relative="1" as="geometry">
            <mxPoint x="310" y="150" as="sourcePoint" />
            <mxPoint x="310" y="270" as="targetPoint" />
          </mxGeometry>
        </mxCell>
        <mxCell id="23" value="" style="endArrow=classic;html=1;rounded=0;" parent="1" source="4" target="6" edge="1">
          <mxGeometry width="50" height="50" relative="1" as="geometry">
            <mxPoint x="120" y="290" as="sourcePoint" />
            <mxPoint x="120" y="350" as="targetPoint" />
          </mxGeometry>
        </mxCell>
        <mxCell id="24" value="" style="endArrow=classic;html=1;rounded=0;" parent="1" source="5" target="7" edge="1">
          <mxGeometry width="50" height="50" relative="1" as="geometry">
            <mxPoint x="370" y="320" as="sourcePoint" />
            <mxPoint x="420" y="170" as="targetPoint" />
          </mxGeometry>
        </mxCell>
        <mxCell id="25" value="" style="endArrow=classic;html=1;rounded=0;" parent="1" source="7" target="8" edge="1">
          <mxGeometry width="50" height="50" relative="1" as="geometry">
            <mxPoint x="460" y="170" as="sourcePoint" />
            <mxPoint x="460" y="270" as="targetPoint" />
          </mxGeometry>
        </mxCell>
        <mxCell id="26" value="" style="endArrow=classic;html=1;rounded=0;" parent="1" source="8" target="9" edge="1">
          <mxGeometry width="50" height="50" relative="1" as="geometry">
            <mxPoint x="530" y="320" as="sourcePoint" />
            <mxPoint x="590" y="140" as="targetPoint" />
            <Array as="points">
              <mxPoint x="544" y="179" />
            </Array>
          </mxGeometry>
        </mxCell>
        <mxCell id="27" value="" style="endArrow=classic;html=1;rounded=0;" parent="1" source="8" target="10" edge="1">
          <mxGeometry width="50" height="50" relative="1" as="geometry">
            <mxPoint x="530" y="320" as="sourcePoint" />
            <mxPoint x="590" y="200" as="targetPoint" />
            <Array as="points">
              <mxPoint x="567" y="226" />
            </Array>
          </mxGeometry>
        </mxCell>
        <mxCell id="28" value="" style="endArrow=classic;html=1;rounded=0;" parent="1" source="8" target="11" edge="1">
          <mxGeometry width="50" height="50" relative="1" as="geometry">
            <mxPoint x="530" y="320" as="sourcePoint" />
            <mxPoint x="590" y="260" as="targetPoint" />
          </mxGeometry>
        </mxCell>
        <mxCell id="29" value="" style="endArrow=classic;html=1;rounded=0;" parent="1" source="8" target="12" edge="1">
          <mxGeometry width="50" height="50" relative="1" as="geometry">
            <mxPoint x="530" y="320" as="sourcePoint" />
            <mxPoint x="590" y="320" as="targetPoint" />
          </mxGeometry>
        </mxCell>
        <mxCell id="30" value="" style="endArrow=classic;html=1;rounded=0;" parent="1" source="8" target="13" edge="1">
          <mxGeometry width="50" height="50" relative="1" as="geometry">
            <mxPoint x="530" y="320" as="sourcePoint" />
            <mxPoint x="590" y="380" as="targetPoint" />
          </mxGeometry>
        </mxCell>
        <mxCell id="31" value="" style="endArrow=classic;html=1;rounded=0;" parent="1" source="8" target="14" edge="1">
          <mxGeometry width="50" height="50" relative="1" as="geometry">
            <mxPoint x="530" y="320" as="sourcePoint" />
            <mxPoint x="590" y="440" as="targetPoint" />
            <Array as="points">
              <mxPoint x="576" y="405" />
            </Array>
          </mxGeometry>
        </mxCell>
        <mxCell id="32" value="" style="endArrow=classic;html=1;rounded=0;" parent="1" source="8" target="15" edge="1">
          <mxGeometry width="50" height="50" relative="1" as="geometry">
            <mxPoint x="530" y="320" as="sourcePoint" />
            <mxPoint x="590" y="500" as="targetPoint" />
            <Array as="points">
              <mxPoint x="560" y="454" />
            </Array>
          </mxGeometry>
        </mxCell>
        <mxCell id="33" value="" style="endArrow=classic;html=1;rounded=0;" parent="1" source="8" target="16" edge="1">
          <mxGeometry width="50" height="50" relative="1" as="geometry">
            <mxPoint x="460" y="370" as="sourcePoint" />
            <mxPoint x="560" y="550" as="targetPoint" />
          </mxGeometry>
        </mxCell>
        <mxCell id="34" value="" style="endArrow=classic;html=1;rounded=0;" parent="1" source="8" target="17" edge="1">
          <mxGeometry width="50" height="50" relative="1" as="geometry">
            <mxPoint x="450" y="370" as="sourcePoint" />
            <mxPoint x="340" y="550" as="targetPoint" />
          </mxGeometry>
        </mxCell>
        <mxCell id="35" value="" style="endArrow=classic;html=1;rounded=0;" parent="1" source="8" target="18" edge="1">
          <mxGeometry width="50" height="50" relative="1" as="geometry">
            <mxPoint x="440" y="370" as="sourcePoint" />
            <mxPoint x="120" y="550" as="targetPoint" />
          </mxGeometry>
        </mxCell>
      </root>
    </mxGraphModel>
  </diagram>
</mxfile>
